<?xml version="1.0" encoding="utf-8"?>
<!-- Generator: Adobe Illustrator 17.0.0, SVG Export Plug-In . SVG Version: 6.00 Build 0)  -->
<!DOCTYPE svg PUBLIC "-//W3C//DTD SVG 1.1//EN" "http://www.w3.org/Graphics/SVG/1.1/DTD/svg11.dtd">
<svg version="1.1" id="Capa_1" xmlns="http://www.w3.org/2000/svg" xmlns:xlink="http://www.w3.org/1999/xlink" x="0px" y="0px"
	 width="263.669px" height="55px" viewBox="-51.64 -7.542 263.669 55" enable-background="new -51.64 -7.542 263.669 55"
	 xml:space="preserve">
<g>
	<path fill-rule="evenodd" clip-rule="evenodd" fill="#D72323" d="M-39.943,36.005c0.387-1.909-0.55-3.538-2.184-4.429
		c-0.066-0.036-0.132-0.071-0.204-0.107c-0.239-0.122-0.489-0.244-0.753-0.366l-0.031,2.469c0.422,0.214,0.758,0.478,1.043,0.962
		c0.422,0.718,0.27,1.588-0.183,2.26c-0.234,0.346-0.55,0.631-0.911,0.881c-0.076,0.056-0.158,0.107-0.239,0.158
		c-0.015,0.01-0.036,0.02-0.051,0.036c-0.097,0.056-0.193,0.112-0.29,0.173c-0.3,0.183-0.616,0.372-0.932,0.575
		c-0.097,0.066-0.193,0.127-0.29,0.193c-0.097,0.066-0.188,0.132-0.285,0.199c-1.782,1.288-3.151,3.08-0.494,5.884
		c-1.11-2.382-0.972-3.477,0.509-4.546c0.092-0.066,0.188-0.132,0.29-0.199c0.092-0.056,0.183-0.117,0.285-0.178
		c0.27-0.158,0.565-0.321,0.896-0.494c0.097-0.051,0.193-0.097,0.29-0.148c0.097-0.046,0.193-0.097,0.29-0.148
		c0.158-0.076,0.316-0.153,0.484-0.234c0.702-0.356,1.364-0.738,1.873-1.262C-40.406,37.247-40.085,36.708-39.943,36.005
		L-39.943,36.005z"/>
	<path fill-rule="evenodd" clip-rule="evenodd" fill="#232323" d="M-43.373,8.594L-43.373,8.594l-0.005,0.468l-0.005,0.193
		l-0.005,0.606l-0.01,0.596v0.051l-0.031,2.52l-0.01,0.611l-0.005,0.504v0.107l-0.005,0.351l0,0l0.051-4.093v-0.041v-0.01
		L-43.373,8.594z M-44.982,14.158l0.087,6.974c0.29-0.097,1.059-0.311,1.369-0.387l0.076-6.144l0,0l0.076-6.006l0.071-5.513
		c-0.621-0.26-1.237-0.321-1.822-0.214l0.061,4.999L-44.982,14.158z"/>
	<path fill-rule="evenodd" clip-rule="evenodd" fill="#D72323" d="M-45.13,2.272c0.596-0.092,1.211-0.036,1.832,0.188
		c0.097,0.031,0.193,0.071,0.29,0.112c0.015,0.01,0.036,0.015,0.051,0.025c0.107,0.046,0.178,0.097,0.234,0.148
		c0.255,0.249,0.229,0.631,2.194,1.507c0.814,0.361,1.72,0.738,2.586,0.901c1.446,0.28,1.334,0.234,2.112-0.804
		c0.305-0.407,0.214-0.55-0.478-1.42c-0.657-0.753-1.15-1.278-1.894-1.929c-0.494-0.428-0.794-0.667-1.379-0.784
		c-0.351-0.071-0.743-0.117-1.099-0.061c-0.061,0.01-0.112,0.015-0.168,0.015c-0.081,0-0.168-0.02-0.3-0.081
		c-0.519-0.219-1.028-0.392-1.532-0.514c-0.097-0.025-0.193-0.046-0.29-0.066c-0.097-0.02-0.188-0.041-0.285-0.056
		c-0.652-0.117-1.288-0.148-1.914-0.092c-0.097,0.005-0.188,0.015-0.285,0.031c-0.097,0.01-0.193,0.025-0.29,0.041
		c-0.326,0.061-0.652,0.143-0.972,0.249c-1.079,0.361-2.087,0.957-2.912,1.746c-1.675,1.609-2.403,3.986-1.802,6.286
		c0.305,1.166,0.84,2.23,1.741,3.013c0.519,0.458,1.12,0.83,1.71,1.166c0.402,0.224,1.746,0.855,2.158,0.957l0.244,0.092
		l-0.046-3.828c-1.369-0.59-2.525-1.456-2.815-2.957c-0.199-1.023,0.173-1.904,0.865-2.586c0.56-0.55,1.191-0.947,1.863-1.161
		c0.097-0.031,0.193-0.056,0.29-0.081C-45.323,2.308-45.226,2.288-45.13,2.272L-45.13,2.272z M-39.342,1.285
		c0.178,0.031,0.336,0.117,0.494,0.224c0.229,0.168,0.458,0.372,0.682,0.555c0.087,0.071,0.102,0.112,0.081,0.3
		C-38.787,2.786-39.841,2.359-39.342,1.285L-39.342,1.285z"/>
	<path fill-rule="evenodd" clip-rule="evenodd" fill="#232323" d="M-43.582,24.924c-0.636,0.204-0.758,0.214-1.262,0.529
		l0.051,4.047l0.005,0.153l0.005,0.657l0.01,0.652l0.015,1.318l0.01,0.626l0.005,0.494v0.137v0.127l0.056,4.199
		c0.417-0.26,0.377-0.265,0.952-0.611l0.041-3.136v-0.173v-0.143l0.051-3.711L-43.582,24.924z"/>
	<path fill-rule="evenodd" clip-rule="evenodd" fill="#232323" d="M-43.776,40.276c-0.331,0.178-0.621,0.346-0.876,0.514
		l0.061,4.902c0,0.015,0,0.025,0,0.036v1.339c0,0.107,0.041,0.204,0.107,0.275c0.071,0.071,0.163,0.117,0.265,0.117
		c0.107,0,0.199-0.046,0.265-0.117c0.066-0.071,0.107-0.168,0.107-0.275v-1.329h0.005L-43.776,40.276z"/>
	<path fill-rule="evenodd" clip-rule="evenodd" fill="#232323" d="M-43.246-1.296l0.036-1.497c-0.005-0.112,0.051-0.224,0.148-0.28
		c0.677-0.412,1.135-1.181,1.135-2.072c0-0.662-0.255-1.262-0.667-1.695c-0.412-0.433-0.982-0.702-1.619-0.702
		c-0.005,0-0.015,0-0.02,0c-0.626,0.005-1.186,0.275-1.598,0.702c-0.412,0.433-0.667,1.033-0.667,1.695
		c0,0.891,0.463,1.659,1.14,2.072c0.087,0.051,0.143,0.153,0.148,0.265l0.031,1.425c0.025,0,0.051,0,0.071-0.005
		c0.132-0.01,0.26-0.015,0.397-0.015c0.158-0.005,0.316,0,0.478,0.005c0.01,0,0.025,0,0.036,0.005
		c0.178,0.005,0.351,0.02,0.524,0.041c0.122,0.01,0.239,0.025,0.356,0.046C-43.297-1.301-43.272-1.301-43.246-1.296L-43.246-1.296z"
		/>
	<path fill-rule="evenodd" clip-rule="evenodd" fill="#D72323" d="M-35.931,15.553L-35.931,15.553z M-42.747,10.04
		c-0.015,1.278-0.036,2.54-0.051,3.802l0.489,0.153c1.145,0.361,1.904,0.626,2.662,1.624c0.672,0.896,0.652,2.861,0.066,3.731
		c-0.158,0.239-0.331,0.433-0.504,0.601c-0.509,0.473-1.089,0.718-1.731,0.988c-0.351,0.148-0.743,0.249-1.14,0.341
		c-0.097,0.025-0.193,0.046-0.29,0.066c-0.097,0.025-0.193,0.046-0.29,0.071c-0.137,0.031-0.27,0.066-0.402,0.102
		c-0.097,0.025-0.199,0.056-0.295,0.087c-0.224,0.061-0.438,0.132-0.657,0.209c-0.097,0.036-0.188,0.071-0.285,0.107
		c-0.097,0.041-0.193,0.076-0.285,0.117c-1.466,0.621-2.713,1.603-3.421,3.416c0,0.005,0,0.005,0,0.01
		c-0.438,1.125-0.504,2.754-0.061,3.894c0.005,0,0.005,0.005,0.005,0.005c0.249,0.641,0.463,1.033,0.901,1.547
		c0.723,0.835,1.659,1.329,2.642,1.741c-0.01-0.896-0.025-1.792-0.036-2.688c0-0.036,0-0.066,0-0.097
		c-0.005-0.005-0.015-0.01-0.02-0.015c-0.036-0.02-0.066-0.046-0.107-0.071c-0.076-0.056-0.148-0.122-0.229-0.193
		c-0.081-0.076-0.163-0.163-0.249-0.265l-0.036-0.036c-0.387-0.448-0.524-1.059-0.489-1.675c0.041-0.728,0.321-1.466,0.713-1.975
		c0.066-0.092,0.143-0.178,0.219-0.26c0.046-0.046,0.092-0.092,0.137-0.132l0,0l0.025-0.02c0.005-0.005,0.005-0.005,0.005-0.005
		c0.025-0.025,0.051-0.046,0.076-0.066c0.046-0.041,0.092-0.076,0.137-0.107c0.051-0.036,0.097-0.071,0.143-0.102
		c0.046-0.031,0.092-0.061,0.143-0.092c0.046-0.031,0.097-0.056,0.143-0.081l0.081-0.046c0.158-0.087,0.331-0.163,0.504-0.229
		c0.02-0.01,0.041-0.02,0.061-0.025c0.193-0.076,0.397-0.148,0.606-0.209l0.158-0.051l0.148-0.041l0.143-0.041l0.143-0.036
		c0.412-0.112,0.779-0.199,1.125-0.285c0.234-0.056,0.463-0.107,0.682-0.163c0.26-0.066,0.514-0.137,0.758-0.224
		c0.249-0.081,0.489-0.173,0.723-0.28l0.005-0.005c0.484-0.229,0.947-0.514,1.374-0.85c0.428-0.341,0.814-0.728,1.155-1.15
		l0.005-0.01c0.275-0.346,0.504-0.697,0.692-1.054c0.02-0.041,0.041-0.081,0.061-0.122c0.158-0.326,0.28-0.652,0.377-0.993
		l0.02-0.071c0.01-0.041,0.02-0.081,0.031-0.122c0.01-0.036,0.02-0.076,0.031-0.122c0.046-0.209,0.081-0.433,0.107-0.662
		c0.031-0.229,0.046-0.463,0.051-0.702v-0.005c0.005-0.143,0-0.285,0-0.428c-0.005-0.148-0.015-0.29-0.025-0.438l-0.015-0.127
		c-0.01-0.122-0.025-0.249-0.046-0.372c-0.02-0.122-0.041-0.239-0.066-0.356c-0.015-0.051-0.025-0.102-0.041-0.153
		c-0.01-0.056-0.025-0.107-0.041-0.153c-0.01-0.046-0.025-0.097-0.041-0.148c-0.02-0.056-0.036-0.107-0.051-0.148
		c-0.076-0.229-0.173-0.448-0.28-0.667c-0.107-0.214-0.234-0.428-0.377-0.641c-0.168-0.255-0.361-0.504-0.58-0.748
		c-0.219-0.244-0.463-0.489-0.738-0.728v-0.005c-1.507-1.344-2.973-1.746-4.668-2.209C-42.747,9.984-42.747,10.009-42.747,10.04
		L-42.747,10.04z"/>
	<path fill-rule="evenodd" clip-rule="evenodd" fill="#232323" d="M-43.582,24.924c-0.3,0.097-0.484,0.148-0.652,0.214
		c-0.188,0.066-0.346,0.148-0.611,0.316l0.005,0.071l0.046,3.975v0.01l0.005,0.143l0.005,0.657l0.01,0.652l0.015,1.318l0.01,0.626
		l0.005,0.494v0.137v0.127l0.005,0.041l0.051,4.072v0.087c0.229-0.143,0.321-0.209,0.453-0.295c0.107-0.071,0.239-0.158,0.499-0.316
		v-0.051l0.041-3.085v-0.036v-0.137v-0.143l0.051-3.711v-0.046l0.061-5.1V24.924z"/>
	<path fill-rule="evenodd" clip-rule="evenodd" fill="#232323" d="M-44.234,40.531c-0.148,0.087-0.29,0.173-0.417,0.26v0.015
		l0.061,4.887c0,0.015,0,0.025,0,0.036v0.076v0.173v0.178v0.733V47v0.066c0,0.015,0,0.036,0.005,0.051
		c0.01,0.087,0.046,0.163,0.102,0.224c0.061,0.061,0.132,0.102,0.219,0.112c0.01,0.005,0.02,0.005,0.031,0.005
		c0.005,0,0.01,0,0.015,0c0.02,0,0.041,0,0.061-0.005c0.031-0.005,0.056-0.01,0.081-0.025c0.025-0.01,0.046-0.02,0.066-0.036
		c0.02-0.015,0.041-0.031,0.056-0.051c0.02-0.02,0.036-0.041,0.051-0.066c0.036-0.061,0.056-0.132,0.056-0.209v-1.329h0.005
		l0.066-5.447v-0.015C-43.938,40.363-44.091,40.449-44.234,40.531L-44.234,40.531z"/>
	<path fill-rule="evenodd" clip-rule="evenodd" fill="#D72323" d="M55.046,21.86V5.184l-5.874,5.477l0,0
		c-0.025,0.025-0.061,0.051-0.092,0.076v0.168h-8.358c-0.249,0-0.473-0.097-0.636-0.249c-0.153-0.143-0.244-0.341-0.244-0.55V-0.4
		c0-0.214,0.092-0.412,0.244-0.555c0.163-0.153,0.387-0.249,0.636-0.249h17.363c0.163,0,0.321,0.041,0.453,0.117l0,0
		c0.127,0.071,0.239,0.168,0.311,0.29L65.945,9.46v-15.54H22.28l6.739,5.803c0.036,0.031,0.071,0.066,0.102,0.102h0.173v26.973
		c0,0.117-0.031,0.229-0.081,0.331h-0.005c-0.051,0.102-0.122,0.193-0.209,0.265l-6.719,5.783h44.713v-16.34l-7.416,11.076
		c-0.076,0.117-0.188,0.214-0.311,0.28c-0.132,0.066-0.285,0.102-0.443,0.102H40.722v0.005c-0.249,0-0.473-0.097-0.636-0.249
		c-0.153-0.143-0.244-0.341-0.244-0.555V16.988c0-0.209,0.092-0.407,0.244-0.55c0.163-0.153,0.387-0.249,0.636-0.249h7.819
		c0.132,0,0.26,0.031,0.377,0.076c0.102,0.046,0.193,0.107,0.27,0.183L55.046,21.86z"/>
	<path fill-rule="evenodd" clip-rule="evenodd" fill="#D72323" d="M77.795,0.297v26.5c0,0.117-0.031,0.229-0.087,0.331l0,0
		c-0.051,0.102-0.122,0.193-0.214,0.265l-6.719,5.783h27.869c1.741,0,3.339-0.132,4.805-0.372c1.593-0.26,3.044-0.636,4.347-1.105
		c1.441-0.519,2.703-1.135,3.787-1.807c1.227-0.758,2.23-1.583,3.024-2.397c0.988-1.023,1.751-2.118,2.342-3.237
		c0.596-1.125,1.013-2.275,1.308-3.395c0.295-1.125,0.468-2.235,0.565-3.268c0.097-1.033,0.117-1.99,0.117-2.82
		c0-1.242-0.076-2.535-0.28-3.838c-0.199-1.308-0.524-2.637-1.018-3.96c-0.489-1.318-1.15-2.627-2.021-3.894
		c-0.876-1.273-1.96-2.504-3.298-3.66c-1.435-1.237-2.942-2.199-4.469-2.942c-1.522-0.743-3.075-1.278-4.602-1.654
		c-1.532-0.382-3.034-0.611-4.449-0.738c-1.415-0.132-2.764-0.168-3.975-0.168H70.775l6.745,5.803
		c0.036,0.031,0.071,0.066,0.097,0.102h0.178V0.297z M104.289,3.397L104.289,3.397z M88.342,27.494V-0.4
		c0-0.214,0.092-0.412,0.244-0.555c0.163-0.153,0.387-0.249,0.636-0.249h4.128c0.906,0,1.832,0.031,2.779,0.143
		c0.957,0.112,1.909,0.3,2.845,0.616c0.947,0.326,1.883,0.774,2.779,1.405c0.886,0.621,1.741,1.42,2.535,2.438
		c0.626,0.799,1.11,1.644,1.486,2.52c0.377,0.865,0.641,1.761,0.83,2.677c0.183,0.901,0.29,1.812,0.351,2.718
		c0.066,0.921,0.081,1.822,0.081,2.703c0,0.809-0.025,1.695-0.097,2.616c-0.071,0.916-0.193,1.858-0.382,2.784
		c-0.199,0.942-0.468,1.863-0.835,2.718c-0.377,0.865-0.86,1.67-1.466,2.362c-0.779,0.881-1.731,1.563-2.764,2.087
		c-1.023,0.524-2.123,0.886-3.212,1.14c-1.069,0.249-2.133,0.392-3.11,0.473c-0.982,0.081-1.858,0.102-2.565,0.102h-3.385
		c-0.249,0-0.473-0.097-0.636-0.249C88.433,27.907,88.342,27.708,88.342,27.494L88.342,27.494z"/>
	<path fill-rule="evenodd" clip-rule="evenodd" fill="#D72323" d="M118.333-6.081l6.739,5.803c0.041,0.031,0.071,0.066,0.102,0.102
		h0.173v0.473v26.5c0,0.117-0.025,0.229-0.081,0.331l0,0c-0.051,0.102-0.122,0.193-0.214,0.265l-6.719,5.783h44.718v-16.34
		l-7.416,11.076c-0.081,0.117-0.188,0.214-0.316,0.28c-0.132,0.066-0.28,0.102-0.438,0.102H136.78v0.005
		c-0.249,0-0.473-0.097-0.636-0.249c-0.153-0.143-0.244-0.341-0.244-0.555V16.988c0-0.209,0.092-0.407,0.244-0.55
		c0.163-0.153,0.387-0.249,0.636-0.249h7.819c0.132,0,0.26,0.031,0.377,0.076c0.102,0.046,0.193,0.107,0.27,0.183l5.859,5.411V5.184
		l-5.874,5.477l0,0c-0.031,0.025-0.061,0.051-0.092,0.076v0.168h-8.358c-0.249,0-0.473-0.097-0.636-0.249
		c-0.153-0.143-0.244-0.341-0.244-0.55V-0.4c0-0.214,0.092-0.412,0.244-0.555c0.163-0.153,0.387-0.249,0.636-0.249h17.363
		c0.163,0,0.316,0.041,0.448,0.117h0.005c0.127,0.066,0.234,0.168,0.311,0.29l7.096,10.257v-15.54H118.333z"/>
	<path fill-rule="evenodd" clip-rule="evenodd" fill="#D72323" d="M169.719,2.277c-0.265,0.947-0.382,1.914-0.382,2.866
		c0,1.965,0.514,3.573,1.369,4.892c0.85,1.318,2.036,2.357,3.38,3.176c1.374,0.84,2.907,1.461,4.408,1.929
		c1.517,0.473,2.993,0.784,4.24,1.013l9.285,1.69c1.252,0.224,2.296,0.443,3.166,0.652c0.891,0.209,1.624,0.417,2.23,0.616
		c0.631,0.214,1.14,0.422,1.553,0.631c0.428,0.219,0.748,0.433,1.008,0.641l0.005,0.005c0.275,0.209,0.529,0.448,0.758,0.708
		c0.229,0.265,0.428,0.545,0.59,0.845c0.163,0.295,0.29,0.606,0.377,0.921c0.081,0.316,0.127,0.631,0.127,0.957
		c0,0.382-0.066,0.764-0.188,1.13c-0.127,0.372-0.316,0.733-0.555,1.074l-0.01,0.015l-0.005,0.005
		c-0.234,0.336-0.524,0.652-0.855,0.942c-0.331,0.29-0.697,0.55-1.094,0.774h-0.01h-0.005c-0.153,0.092-0.382,0.214-0.692,0.336
		c-0.311,0.132-0.713,0.27-1.211,0.392c-0.489,0.122-1.074,0.234-1.787,0.321c-0.708,0.081-1.522,0.132-2.453,0.132
		c-2.469,0-4.739-0.29-6.826-0.804c-2.255-0.56-4.296-1.385-6.134-2.408c-1.985-1.099-3.726-2.428-5.248-3.884
		c-1.583-1.512-2.932-3.161-4.067-4.851v16.879h0.356l4.948-3.706l0,0c0.163-0.122,0.361-0.188,0.565-0.199s0.412,0.036,0.585,0.137
		c1.573,0.937,3.115,1.654,4.602,2.209c1.481,0.55,2.907,0.942,4.25,1.217c1.344,0.275,2.596,0.438,3.726,0.524
		c1.12,0.092,2.148,0.112,3.029,0.112c1.415,0,2.876-0.066,4.322-0.214c1.318-0.137,2.621-0.341,3.869-0.631
		c1.135-0.265,2.235-0.596,3.258-1.008c0.942-0.382,1.822-0.835,2.621-1.364l0,0c0.738-0.489,1.497-1.11,2.204-1.878
		c0.611-0.662,1.181-1.435,1.654-2.311c0.422-0.779,0.774-1.644,1.008-2.601c0.219-0.876,0.341-1.827,0.341-2.851
		c0-2.28-0.56-4.143-1.502-5.665c-0.942-1.522-2.27-2.718-3.802-3.66c-1.563-0.962-3.344-1.665-5.161-2.194
		c-1.832-0.529-3.69-0.876-5.391-1.115l-5.37-0.764l0,0c-0.239-0.031-0.443-0.056-0.626-0.081c-0.356-0.041-0.54-0.066-0.713-0.087
		c-2.357-0.295-4.82-0.601-6.729-1.385c-2.031-0.83-3.416-2.163-3.416-4.484c0-0.57,0-1.741,1.135-2.795
		c1.074-0.998,3.171-1.858,7.299-1.858c2.163,0,4.143,0.244,5.95,0.677c2.006,0.478,3.792,1.181,5.385,2.026
		c1.787,0.947,3.319,2.077,4.622,3.268c1.344,1.227,2.443,2.52,3.319,3.746V-7.073h-0.417l-3.869,3.054v0.005
		c-0.153,0.117-0.341,0.188-0.54,0.204c-0.193,0.02-0.392-0.015-0.565-0.102l-0.005-0.005c-1.12-0.555-2.265-1.038-3.426-1.456
		c-1.237-0.438-2.474-0.799-3.69-1.084c-1.313-0.305-2.606-0.529-3.843-0.677c-1.318-0.158-2.591-0.229-3.777-0.229
		c-1.059,0-2.153,0.066-3.248,0.199c-1.059,0.127-2.128,0.316-3.176,0.575c-0.982,0.244-1.95,0.55-2.871,0.911
		c-0.865,0.346-1.695,0.748-2.453,1.201l-0.041,0.02c-0.947,0.57-1.761,1.196-2.453,1.868c-0.738,0.708-1.339,1.466-1.812,2.255
		C170.33,0.511,169.963,1.387,169.719,2.277L169.719,2.277z"/>
	<path fill-rule="evenodd" clip-rule="evenodd" fill="#D72323" d="M-22.921,2.277c-0.26,0.947-0.382,1.914-0.382,2.866
		c0,1.965,0.519,3.573,1.369,4.892c0.85,1.318,2.041,2.357,3.38,3.176c1.374,0.84,2.912,1.461,4.408,1.929
		c1.522,0.473,2.998,0.784,4.24,1.013l9.285,1.69c1.252,0.224,2.296,0.443,3.171,0.652c0.886,0.209,1.619,0.417,2.224,0.616
		c0.636,0.214,1.14,0.422,1.553,0.631c0.428,0.219,0.753,0.433,1.008,0.641l0.005,0.005c0.28,0.209,0.534,0.448,0.758,0.708
		c0.229,0.265,0.428,0.545,0.59,0.845c0.163,0.295,0.295,0.606,0.377,0.921c0.087,0.316,0.132,0.631,0.132,0.957
		c0,0.382-0.066,0.764-0.193,1.13c-0.127,0.372-0.316,0.733-0.555,1.074l-0.005,0.015L8.44,26.044
		c-0.239,0.336-0.529,0.652-0.855,0.942c-0.331,0.29-0.702,0.55-1.099,0.774H6.48H6.475c-0.158,0.092-0.387,0.214-0.692,0.336
		c-0.316,0.132-0.718,0.27-1.217,0.392c-0.484,0.122-1.074,0.234-1.787,0.321c-0.708,0.081-1.517,0.132-2.448,0.132
		c-2.469,0-4.739-0.29-6.831-0.804c-2.255-0.56-4.291-1.385-6.129-2.408c-1.985-1.099-3.726-2.428-5.253-3.884
		c-1.583-1.512-2.927-3.161-4.062-4.851v16.879h0.356l4.943-3.706l0,0c0.163-0.122,0.366-0.188,0.57-0.199
		c0.199-0.01,0.407,0.036,0.58,0.137c1.573,0.937,3.12,1.654,4.602,2.209c1.481,0.55,2.912,0.942,4.25,1.217
		c1.349,0.275,2.601,0.438,3.731,0.524c1.12,0.092,2.148,0.112,3.029,0.112c1.415,0,2.871-0.066,4.322-0.214
		c1.313-0.137,2.616-0.341,3.869-0.631c1.135-0.265,2.23-0.596,3.253-1.008c0.942-0.382,1.827-0.835,2.621-1.364h0.005
		c0.733-0.489,1.491-1.11,2.199-1.878c0.616-0.662,1.186-1.435,1.659-2.311c0.422-0.779,0.769-1.644,1.008-2.601
		c0.214-0.876,0.341-1.827,0.341-2.851c0-2.28-0.565-4.143-1.507-5.665c-0.942-1.522-2.265-2.718-3.797-3.66
		c-1.563-0.962-3.344-1.665-5.161-2.194C7.096,9.261,5.233,8.915,3.538,8.676l-5.37-0.764l0,0c-0.244-0.031-0.443-0.056-0.626-0.081
		c-0.361-0.041-0.54-0.066-0.713-0.087c-2.357-0.295-4.82-0.601-6.734-1.385c-2.026-0.83-3.416-2.163-3.416-4.484
		c0-0.57,0-1.741,1.135-2.795c1.074-0.998,3.176-1.858,7.304-1.858c2.158,0,4.138,0.244,5.95,0.677c2,0.478,3.792,1.181,5.385,2.026
		c1.782,0.947,3.314,2.077,4.617,3.268c1.349,1.227,2.448,2.52,3.319,3.746V-7.073h-0.412l-3.874,3.054v0.005
		C9.952-3.897,9.764-3.826,9.57-3.811C9.377-3.79,9.173-3.826,9-3.912v-0.005C7.88-4.472,6.73-4.956,5.569-5.373
		C4.337-5.811,3.1-6.172,1.879-6.457C0.571-6.763-0.722-6.987-1.964-7.134c-1.318-0.158-2.591-0.229-3.777-0.229
		c-1.054,0-2.148,0.066-3.248,0.199c-1.054,0.127-2.123,0.316-3.171,0.575c-0.988,0.244-1.955,0.55-2.871,0.911
		c-0.87,0.346-1.695,0.748-2.453,1.201l-0.041,0.02c-0.947,0.57-1.766,1.196-2.459,1.868c-0.733,0.708-1.334,1.466-1.812,2.255
		C-22.305,0.511-22.677,1.387-22.921,2.277L-22.921,2.277z"/>
	<path fill="#232323" d="M-17.49,44.369c-0.02-0.387-0.127-0.728-0.326-1.023c-0.199-0.295-0.443-0.529-0.733-0.692
		c-0.29-0.163-0.601-0.326-0.937-0.484c-0.341-0.153-0.646-0.295-0.926-0.407c-0.57-0.229-1.003-0.631-1.018-1.125
		c-0.01-0.29,0.092-0.529,0.305-0.723c0.209-0.193,0.489-0.28,0.825-0.28c0.626,0,1.059,0.397,1.176,0.937h1.486
		c-0.056-0.697-0.331-1.247-0.814-1.654c-0.489-0.397-1.11-0.601-1.863-0.601c-0.764,0-1.4,0.209-1.914,0.621
		c-0.509,0.412-0.764,0.998-0.753,1.751c0.005,0.458,0.148,0.85,0.417,1.176c0.275,0.326,0.59,0.575,0.972,0.748
		c0.377,0.173,0.758,0.336,1.135,0.489c0.382,0.148,0.702,0.331,0.982,0.545c0.27,0.214,0.422,0.468,0.443,0.774
		c0.025,0.331-0.081,0.611-0.321,0.84c-0.249,0.229-0.575,0.346-0.982,0.346c-0.366,0-0.682-0.097-0.926-0.29
		c-0.255-0.193-0.402-0.433-0.428-0.728h-1.507c0.02,0.652,0.285,1.211,0.794,1.665c0.514,0.458,1.206,0.682,2.067,0.682
		c0.896,0,1.603-0.249,2.112-0.743C-17.714,45.697-17.469,45.091-17.49,44.369L-17.49,44.369z M-10.994,39.798v-1.329h-5.233v8.307
		h5.233v-1.323h-3.68v-2.235h3.385V41.9h-3.385v-2.102H-10.994z M-3.41,46.781l-2.082-3.599c0.942-0.377,1.415-1.13,1.415-2.26
		c0-0.758-0.234-1.354-0.702-1.797c-0.468-0.438-1.12-0.657-1.96-0.657h-2.774v8.312h1.553v-3.385h1.059l1.878,3.385H-3.41z
		 M-6.973,39.798c0.835,0,1.364,0.382,1.364,1.125c0,0.738-0.545,1.145-1.364,1.145h-0.988v-2.27H-6.973z M3.864,38.469H2.286
		l-1.863,6.297l-1.822-6.297h-1.588l2.637,8.312h1.547L3.864,38.469z M4.892,38.469v8.312h1.553v-8.312H4.892z M10.929,45.616
		c-0.473,0-0.845-0.143-1.12-0.428c-0.285-0.285-0.422-0.641-0.422-1.079v-2.968c0-0.438,0.137-0.794,0.422-1.079
		c0.275-0.285,0.646-0.428,1.12-0.428c0.422,0,0.764,0.107,1.023,0.321c0.26,0.224,0.412,0.489,0.478,0.794h1.563
		c-0.071-0.687-0.392-1.267-0.947-1.736c-0.57-0.463-1.278-0.697-2.133-0.697c-0.906,0-1.644,0.265-2.219,0.794
		c-0.57,0.524-0.86,1.176-0.86,1.939v3.156c0,0.764,0.29,1.405,0.86,1.929c0.575,0.534,1.313,0.799,2.219,0.799
		c0.855,0,1.563-0.229,2.133-0.697c0.555-0.468,0.876-1.044,0.947-1.731h-1.563c-0.066,0.305-0.229,0.57-0.484,0.784
		C11.688,45.509,11.342,45.616,10.929,45.616L10.929,45.616z M15.383,38.469v8.312h1.553v-8.312H15.383z M19.191,39.11
		c-0.575,0.524-0.865,1.176-0.865,1.939v3.156c0,0.764,0.29,1.405,0.865,1.929c0.575,0.534,1.318,0.799,2.235,0.799
		c0.911,0,1.649-0.265,2.219-0.789c0.57-0.529,0.855-1.176,0.855-1.939V41.05c0-0.764-0.285-1.415-0.855-1.939
		c-0.57-0.529-1.308-0.794-2.219-0.794C20.509,38.316,19.766,38.581,19.191,39.11L19.191,39.11z M22.957,44.109
		c0,0.438-0.137,0.794-0.412,1.079c-0.285,0.285-0.657,0.428-1.12,0.428c-0.468,0-0.84-0.143-1.125-0.428s-0.422-0.641-0.422-1.079
		v-2.968c0-0.438,0.137-0.794,0.422-1.079s0.657-0.428,1.125-0.428c0.463,0,0.835,0.137,1.12,0.417
		c0.275,0.285,0.412,0.652,0.412,1.089V44.109z M34.446,41.146c0-0.697-0.27-1.323-0.804-1.868c-0.54-0.534-1.267-0.809-2.179-0.809
		h-3.125v8.307h3.125c0.916,0,1.644-0.27,2.179-0.814c0.534-0.54,0.804-1.166,0.804-1.868V41.146z M32.894,44.002
		c0,0.412-0.137,0.753-0.407,1.033c-0.275,0.275-0.631,0.417-1.069,0.417H29.89v-5.655h1.527c0.438,0,0.794,0.137,1.069,0.417
		c0.27,0.28,0.407,0.621,0.407,1.033V44.002z M41.074,39.798v-1.329h-5.238v8.307h5.238v-1.323h-3.685v-2.235h3.385V41.9h-3.385
		v-2.102H41.074z M42.55,38.469v8.312h1.553v-3.253h1.222c0.83,0,1.481-0.234,1.955-0.692c0.468-0.453,0.702-1.069,0.702-1.843
		c0-0.764-0.234-1.379-0.702-1.838c-0.473-0.458-1.125-0.687-1.955-0.687H42.55z M44.102,42.195v-2.398h1.135
		c0.407,0,0.733,0.102,0.982,0.321c0.249,0.214,0.377,0.504,0.377,0.876c0,0.377-0.127,0.667-0.377,0.886
		c-0.249,0.214-0.575,0.316-0.982,0.316H44.102z M54.486,46.781l-2.642-8.312h-1.537l-2.647,8.312h1.588l0.519-1.756h2.621
		l0.519,1.756H54.486z M51.071,40.587l0.937,3.141h-1.853L51.071,40.587z M61.623,46.781l-2.082-3.599
		c0.942-0.377,1.41-1.13,1.41-2.26c0-0.758-0.234-1.354-0.697-1.797c-0.468-0.438-1.12-0.657-1.96-0.657H55.52v8.312h1.553v-3.385
		h1.059l1.878,3.385H61.623z M58.06,39.798c0.835,0,1.364,0.382,1.364,1.125c0,0.738-0.545,1.145-1.364,1.145h-0.988v-2.27H58.06z
		 M62.208,38.469v1.329h2.153v6.984h1.553v-6.984h2.153v-1.329H62.208z M75.02,46.781l-2.642-8.312h-1.537l-2.647,8.312h1.588
		l0.514-1.756h2.621l0.519,1.756H75.02z M71.605,40.587l0.937,3.141h-1.858L71.605,40.587z M84.071,38.469h-1.385l-2.657,6.159
		l-2.596-6.159h-1.379v8.312h1.466l-0.036-5.095l2.112,5.095h0.876l2.163-5.095L82.6,46.781h1.471V38.469z M90.882,39.798v-1.329
		h-5.233v8.307h5.233v-1.323h-3.685v-2.235h3.39V41.9h-3.39v-2.102H90.882z M97.214,38.469v5.548l-3.176-5.548h-1.675v8.312h1.553
		v-5.604l3.181,5.604h1.659v-8.312H97.214z M99.968,38.469v1.329h2.148v6.984h1.553v-6.984h2.153v-1.329H99.968z M112.775,46.781
		l-2.642-8.312h-1.537l-2.647,8.312h1.588l0.519-1.756h2.621l0.514,1.756H112.775z M109.359,40.587l0.937,3.141h-1.858
		L109.359,40.587z M115.284,38.469h-1.476v8.307h4.535v-1.323h-3.059V38.469z M128.035,41.146c0-0.697-0.27-1.323-0.809-1.868
		c-0.54-0.534-1.262-0.809-2.174-0.809h-3.13v8.307h3.13c0.911,0,1.644-0.27,2.174-0.814c0.54-0.54,0.809-1.166,0.809-1.868V41.146z
		 M126.483,44.002c0,0.412-0.137,0.753-0.407,1.033c-0.28,0.275-0.631,0.417-1.069,0.417h-1.532v-5.655h1.532
		c0.438,0,0.789,0.137,1.069,0.417c0.27,0.28,0.407,0.621,0.407,1.033V44.002z M134.658,39.798v-1.329h-5.233v8.307h5.233v-1.323
		h-3.68v-2.235h3.385V41.9h-3.385v-2.102H134.658z M143.973,44.369c-0.02-0.387-0.127-0.728-0.326-1.023
		c-0.199-0.295-0.443-0.529-0.733-0.692c-0.29-0.163-0.601-0.326-0.937-0.484c-0.341-0.153-0.646-0.295-0.926-0.407
		c-0.57-0.229-1.003-0.631-1.018-1.125c-0.01-0.29,0.092-0.529,0.305-0.723c0.209-0.193,0.489-0.28,0.825-0.28
		c0.626,0,1.059,0.397,1.176,0.937h1.486c-0.056-0.697-0.331-1.247-0.814-1.654c-0.489-0.397-1.11-0.601-1.863-0.601
		c-0.764,0-1.4,0.209-1.914,0.621c-0.509,0.412-0.764,0.998-0.753,1.751c0.005,0.458,0.148,0.85,0.417,1.176
		c0.27,0.326,0.59,0.575,0.972,0.748c0.377,0.173,0.753,0.336,1.135,0.489c0.382,0.148,0.702,0.331,0.982,0.545
		c0.27,0.214,0.422,0.468,0.443,0.774c0.025,0.331-0.081,0.611-0.321,0.84c-0.249,0.229-0.575,0.346-0.982,0.346
		c-0.366,0-0.682-0.097-0.926-0.29c-0.255-0.193-0.402-0.433-0.428-0.728h-1.507c0.02,0.652,0.285,1.211,0.794,1.665
		c0.514,0.458,1.206,0.682,2.067,0.682c0.896,0,1.603-0.249,2.112-0.743C143.749,45.697,143.993,45.091,143.973,44.369
		L143.973,44.369z M151.516,46.781l-2.637-8.312h-1.537l-2.647,8.312h1.583l0.519-1.756h2.621l0.519,1.756H151.516z M148.106,40.587
		l0.937,3.141h-1.858L148.106,40.587z M154.031,38.469h-1.481v8.307h4.535v-1.323h-3.054V38.469z M162.679,44.099
		c0,0.433-0.137,0.794-0.417,1.079c-0.28,0.285-0.652,0.428-1.115,0.428c-0.473,0-0.845-0.143-1.13-0.428
		c-0.28-0.285-0.417-0.646-0.417-1.079v-5.63h-1.553v5.737c0,0.764,0.29,1.405,0.865,1.929c0.57,0.534,1.318,0.799,2.235,0.799
		c0.906,0,1.644-0.265,2.219-0.789c0.57-0.529,0.85-1.176,0.85-1.939v-5.737h-1.537V44.099z M171.73,41.146
		c0-0.697-0.27-1.323-0.809-1.868c-0.54-0.534-1.262-0.809-2.174-0.809h-3.13v8.307h3.13c0.911,0,1.644-0.27,2.174-0.814
		c0.54-0.54,0.809-1.166,0.809-1.868V41.146z M170.177,44.002c0,0.412-0.137,0.753-0.407,1.033c-0.28,0.275-0.631,0.417-1.069,0.417
		h-1.532v-5.655h1.532c0.438,0,0.789,0.137,1.069,0.417c0.27,0.28,0.407,0.621,0.407,1.033V44.002z M175.558,38.469v8.312h1.553
		v-3.253h1.217c0.835,0,1.481-0.234,1.96-0.692c0.468-0.453,0.702-1.069,0.702-1.843c0-0.764-0.234-1.379-0.702-1.838
		c-0.478-0.458-1.125-0.687-1.96-0.687H175.558z M177.11,42.195v-2.398h1.135c0.402,0,0.728,0.102,0.982,0.321
		c0.244,0.214,0.372,0.504,0.372,0.876c0,0.377-0.127,0.667-0.372,0.886c-0.255,0.214-0.58,0.316-0.982,0.316H177.11z
		 M182.704,39.11c-0.575,0.524-0.865,1.176-0.865,1.939v3.156c0,0.764,0.29,1.405,0.865,1.929c0.57,0.534,1.318,0.799,2.23,0.799
		c0.911,0,1.649-0.265,2.224-0.789c0.57-0.529,0.85-1.176,0.85-1.939V41.05c0-0.764-0.28-1.415-0.85-1.939
		c-0.575-0.529-1.313-0.794-2.224-0.794C184.023,38.316,183.274,38.581,182.704,39.11L182.704,39.11z M186.471,44.109
		c0,0.438-0.137,0.794-0.417,1.079c-0.28,0.285-0.652,0.428-1.12,0.428c-0.468,0-0.84-0.143-1.125-0.428
		c-0.28-0.285-0.417-0.641-0.417-1.079v-2.968c0-0.438,0.137-0.794,0.417-1.079c0.285-0.285,0.657-0.428,1.125-0.428
		c0.468,0,0.84,0.137,1.12,0.417c0.28,0.285,0.417,0.652,0.417,1.089V44.109z M189.032,38.469v1.329h2.153v6.984h1.553v-6.984h2.153
		v-1.329H189.032z M196.769,39.11c-0.575,0.524-0.865,1.176-0.865,1.939v3.156c0,0.764,0.29,1.405,0.865,1.929
		c0.57,0.534,1.318,0.799,2.235,0.799c0.906,0,1.649-0.265,2.219-0.789c0.57-0.529,0.855-1.176,0.855-1.939V41.05
		c0-0.764-0.285-1.415-0.855-1.939c-0.57-0.529-1.313-0.794-2.219-0.794C198.087,38.316,197.339,38.581,196.769,39.11L196.769,39.11
		z M200.535,44.109c0,0.438-0.137,0.794-0.412,1.079c-0.285,0.285-0.657,0.428-1.12,0.428c-0.473,0-0.845-0.143-1.125-0.428
		c-0.285-0.285-0.423-0.641-0.423-1.079v-2.968c0-0.438,0.137-0.794,0.423-1.079c0.28-0.285,0.652-0.428,1.125-0.428
		c0.463,0,0.835,0.137,1.12,0.417c0.275,0.285,0.412,0.652,0.412,1.089V44.109z M208.873,44.369
		c-0.02-0.387-0.127-0.728-0.326-1.023c-0.199-0.295-0.448-0.529-0.733-0.692c-0.29-0.163-0.601-0.326-0.942-0.484
		c-0.336-0.153-0.641-0.295-0.926-0.407c-0.565-0.229-1.003-0.631-1.018-1.125c-0.005-0.29,0.097-0.529,0.305-0.723
		c0.214-0.193,0.489-0.28,0.825-0.28c0.631,0,1.064,0.397,1.176,0.937h1.491c-0.061-0.697-0.331-1.247-0.814-1.654
		c-0.489-0.397-1.11-0.601-1.863-0.601c-0.764,0-1.4,0.209-1.914,0.621c-0.509,0.412-0.764,0.998-0.758,1.751
		c0.005,0.458,0.153,0.85,0.422,1.176c0.27,0.326,0.59,0.575,0.967,0.748c0.382,0.173,0.758,0.336,1.14,0.489
		c0.377,0.148,0.702,0.331,0.982,0.545c0.27,0.214,0.422,0.468,0.443,0.774c0.025,0.331-0.081,0.611-0.326,0.84
		c-0.244,0.229-0.57,0.346-0.977,0.346c-0.372,0-0.682-0.097-0.932-0.29c-0.249-0.193-0.397-0.433-0.428-0.728h-1.502
		c0.02,0.652,0.285,1.211,0.794,1.665c0.509,0.458,1.201,0.682,2.067,0.682c0.896,0,1.598-0.249,2.112-0.743
		C208.649,45.697,208.894,45.091,208.873,44.369L208.873,44.369z M210.136,38.469v8.312h1.553v-8.312H210.136z"/>
</g>
</svg>
